<?xml version="1.0" encoding="UTF-8" standalone="no"?>
<!-- Creator: fig2dev Version 3.2 Patchlevel 5e -->

<!-- CreationDate: Tue Dec 17 07:32:05 2019 -->

<!-- Magnification: 1.050 -->

<svg
   xmlns:dc="http://purl.org/dc/elements/1.1/"
   xmlns:cc="http://creativecommons.org/ns#"
   xmlns:rdf="http://www.w3.org/1999/02/22-rdf-syntax-ns#"
   xmlns:svg="http://www.w3.org/2000/svg"
   xmlns="http://www.w3.org/2000/svg"
   xmlns:sodipodi="http://sodipodi.sourceforge.net/DTD/sodipodi-0.dtd"
   xmlns:inkscape="http://www.inkscape.org/namespaces/inkscape"
   width="2.8in"
   height="1.7in"
   viewBox="1404 2349 3332 2032"
   id="svg3556"
   version="1.1"
   inkscape:version="0.91 r13725"
   sodipodi:docname="bisec.svg">
  <metadata
     id="metadata3586">
    <rdf:RDF>
      <cc:Work
         rdf:about="">
        <dc:format>image/svg+xml</dc:format>
        <dc:type
           rdf:resource="http://purl.org/dc/dcmitype/StillImage" />
        <dc:title></dc:title>
      </cc:Work>
    </rdf:RDF>
  </metadata>
  <defs
     id="defs3584" />
  <sodipodi:namedview
     pagecolor="#ffffff"
     bordercolor="#666666"
     borderopacity="1"
     objecttolerance="10"
     gridtolerance="10"
     guidetolerance="10"
     inkscape:pageopacity="0"
     inkscape:pageshadow="2"
     inkscape:window-width="640"
     inkscape:window-height="480"
     id="namedview3582"
     showgrid="false"
     inkscape:zoom="1.1825397"
     inkscape:cx="126"
     inkscape:cy="76.500002"
     inkscape:window-x="43"
     inkscape:window-y="24"
     inkscape:window-maximized="0"
     inkscape:current-layer="svg3556" />
  <g
     style="stroke-width:.025in; fill:none"
     id="g3558">
    <!-- Line -->
    <polyline
       points="1889,2362 1889,4369 "
       style="stroke:#00ff00;stroke-width:8; stroke-linejoin:miter; stroke-linecap:butt; "
       id="polyline3560" />
    <!-- Line -->
    <polyline
       points="2362,4251 2362,3779 "
       style="stroke:#000000;stroke-width:8; stroke-linejoin:miter; stroke-linecap:butt; stroke-dasharray:67 67;"
       id="polyline3562" />
    <!-- Line -->
    <polyline
       points="4251,3070 4251,3779 "
       style="stroke:#000000;stroke-width:8; stroke-linejoin:miter; stroke-linecap:butt; stroke-dasharray:67 67;"
       id="polyline3564" />
    <!-- Line -->
    <polyline
       points="2362,4251 2364,4250 2370,4248 2380,4245 2395,4239 2415,4232 2441,4222 2473,4211 2508,4197 2545,4182 2584,4167 2624,4151 2664,4135 2702,4119 2739,4103 2774,4088 2807,4072 2837,4057 2867,4043 2894,4028 2919,4013 2943,3998 2966,3984 2988,3969 3009,3953 3032,3937 3051,3920 3072,3902 3092,3883 3113,3864 3134,3844 3155,3823 3176,3802 3197,3779 3218,3757 3240,3733 3262,3710 3285,3686 3307,3660 3329,3636 3351,3612 3373,3589 3395,3565 3416,3543 3437,3520 3458,3499 3479,3478 3500,3458 3521,3439 3541,3420 3562,3402 3583,3385 3604,3369 3625,3353 3647,3338 3670,3323 3694,3309 3719,3294 3746,3279 3776,3265 3806,3250 3839,3234 3875,3218 3911,3203 3949,3187 3989,3171 4029,3154 4068,3140 4106,3125 4140,3111 4172,3100 4198,3090 4218,3083 4234,3077 4243,3074 4249,3071 4251,3070 "
       style="stroke:#000000;stroke-width:32; stroke-linejoin:bevel; stroke-linecap:butt; "
       id="polyline3566" />
    <!-- Line -->
    <polyline
       points="1417,3779 4724,3779 "
       style="stroke:#00ff00;stroke-width:8; stroke-linejoin:miter; stroke-linecap:butt; "
       id="polyline3568" />
    <!-- Text -->
    <text
       xml:space="preserve"
       x="4112"
       y="3997"
       fill="#000000"
       font-family="Times"
       font-style="italic"
       font-weight="bold"
       font-size="189"
       text-anchor="start"
       id="text3570">r</text>
    <!-- Text -->
    <text
       xml:space="preserve"
       x="4242"
       y="4120"
       fill="#000000"
       font-family="Times"
       font-style="italic"
       font-weight="bold"
       font-size="152"
       text-anchor="start"
       id="text3572">0</text>
    <!-- Text -->
    <text
       xml:space="preserve"
       x="2257"
       y="3630"
       fill="#000000"
       font-family="Times"
       font-style="italic"
       font-weight="bold"
       font-size="189"
       text-anchor="start"
       id="text3574">l</text>
    <!-- Text -->
    <text
       xml:space="preserve"
       x="2370"
       y="3753"
       fill="#000000"
       font-family="Times"
       font-style="italic"
       font-weight="bold"
       font-size="152"
       text-anchor="start"
       id="text3576">0</text>
    <!-- Text -->
    <text
       xml:space="preserve"
       x="3323"
       y="3280"
       fill="#000000"
       font-family="Times"
       font-style="italic"
       font-weight="bold"
       font-size="189"
       text-anchor="start"
       id="text3578">f(x)</text>
    <!-- Text -->
    <text
       xml:space="preserve"
       x="3202"
       y="4086"
       fill="#000000"
       font-family="Times"
       font-style="italic"
       font-weight="bold"
       font-size="189"
       text-anchor="start"
       id="text3580">a</text>
  </g>
</svg>
