<?xml version="1.0" encoding="UTF-8" standalone="no"?>
<!-- Creator: fig2dev Version 3.2 Patchlevel 5e -->

<!-- CreationDate: Mon Jan  6 13:31:13 2020 -->

<!-- Magnification: 1.050 -->

<svg
   xmlns:dc="http://purl.org/dc/elements/1.1/"
   xmlns:cc="http://creativecommons.org/ns#"
   xmlns:rdf="http://www.w3.org/1999/02/22-rdf-syntax-ns#"
   xmlns:svg="http://www.w3.org/2000/svg"
   xmlns="http://www.w3.org/2000/svg"
   xmlns:sodipodi="http://sodipodi.sourceforge.net/DTD/sodipodi-0.dtd"
   xmlns:inkscape="http://www.inkscape.org/namespaces/inkscape"
   width="7.9in"
   height="2.8in"
   viewBox="459 932 9474 3332"
   id="svg2"
   version="1.1"
   inkscape:version="0.91 r13725"
   sodipodi:docname="evennc.svg">
  <metadata
     id="metadata62">
    <rdf:RDF>
      <cc:Work
         rdf:about="">
        <dc:format>image/svg+xml</dc:format>
        <dc:type
           rdf:resource="http://purl.org/dc/dcmitype/StillImage" />
        <dc:title></dc:title>
      </cc:Work>
    </rdf:RDF>
  </metadata>
  <defs
     id="defs60" />
  <sodipodi:namedview
     pagecolor="#ffffff"
     bordercolor="#666666"
     borderopacity="1"
     objecttolerance="10"
     gridtolerance="10"
     guidetolerance="10"
     inkscape:pageopacity="0"
     inkscape:pageshadow="2"
     inkscape:window-width="640"
     inkscape:window-height="480"
     id="namedview58"
     showgrid="false"
     inkscape:zoom="0.41912798"
     inkscape:cx="355.5"
     inkscape:cy="126"
     inkscape:window-x="43"
     inkscape:window-y="24"
     inkscape:window-maximized="0"
     inkscape:current-layer="svg2" />
  <g
     style="stroke-width:.025in; fill:none"
     id="g4">
    <!-- Line -->
    <polyline
       points="472,3779 4724,3779 "
       style="stroke:#000000;stroke-width:8; stroke-linejoin:miter; stroke-linecap:butt; "
       id="polyline6" />
    <!-- Line -->
    <polyline
       points="944,944 944,4251 "
       style="stroke:#000000;stroke-width:8; stroke-linejoin:miter; stroke-linecap:butt; "
       id="polyline8" />
    <!-- Line -->
    <polyline
       points="1417,3779 1420,3781 1425,3787 1436,3797 1451,3812 1472,3830 1499,3853 1527,3878 1559,3905 1591,3931 1623,3958 1654,3983 1683,4005 1712,4025 1738,4041 1763,4056 1786,4069 1808,4078 1829,4086 1849,4090 1869,4093 1889,4094 1909,4093 1929,4091 1949,4087 1970,4080 1991,4073 2012,4064 2034,4052 2056,4039 2079,4026 2102,4010 2125,3993 2149,3975 2172,3958 2195,3939 2217,3919 2239,3899 2260,3879 2281,3859 2302,3839 2322,3819 2342,3799 2362,3779 2382,3759 2402,3739 2422,3719 2443,3699 2464,3679 2485,3659 2507,3639 2529,3619 2552,3601 2575,3583 2598,3565 2621,3548 2644,3532 2667,3519 2689,3506 2711,3495 2732,3485 2753,3478 2774,3471 2794,3467 2814,3465 2834,3464 2854,3465 2874,3467 2894,3471 2915,3478 2936,3485 2957,3495 2979,3506 3001,3519 3024,3532 3047,3548 3070,3565 3093,3583 3117,3601 3140,3619 3162,3639 3184,3659 3205,3679 3226,3699 3247,3719 3267,3739 3287,3759 3307,3779 3327,3799 3346,3819 3366,3839 3387,3859 3408,3879 3429,3899 3451,3919 3474,3939 3497,3958 3520,3975 3543,3993 3566,4010 3589,4026 3612,4039 3634,4052 3656,4064 3677,4073 3698,4080 3719,4087 3739,4091 3759,4093 3779,4094 3799,4093 3819,4090 3839,4086 3860,4078 3882,4069 3905,4056 3930,4041 3956,4025 3985,4005 4014,3983 4046,3958 4077,3931 4110,3905 4141,3878 4170,3853 4196,3830 4217,3812 4233,3797 4243,3787 4248,3781 4251,3779 "
       style="stroke:#000000;stroke-width:8; stroke-linejoin:bevel; stroke-linecap:butt; fill:#b2f1f1; "
       id="polyline10" />
    <!-- Line -->
    <polyline
       points="472,2834 1417,3779 "
       style="stroke:#000000;stroke-width:8; stroke-linejoin:miter; stroke-linecap:butt; "
       id="polyline12" />
    <!-- Line -->
    <polyline
       points="4251,3779 5196,2834 "
       style="stroke:#000000;stroke-width:8; stroke-linejoin:miter; stroke-linecap:butt; "
       id="polyline14" />
    <!-- Line -->
    <polyline
       points="8976,3799 9448,3327 "
       style="stroke:#000000;stroke-width:8; stroke-linejoin:miter; stroke-linecap:butt; "
       id="polyline16" />
    <!-- Line -->
    <polyline
       points="6614,4237 7086,3764 "
       style="stroke:#000000;stroke-width:8; stroke-linejoin:miter; stroke-linecap:butt; "
       id="polyline18" />
    <!-- Line -->
    <polyline
       points="7086,3764 7089,3762 7095,3756 7105,3746 7121,3732 7142,3713 7168,3691 7196,3666 7228,3638 7260,3612 7292,3586 7323,3561 7353,3539 7381,3519 7407,3502 7433,3487 7456,3475 7478,3465 7499,3458 7519,3454 7539,3450 7559,3449 7579,3450 7598,3453 7618,3457 7639,3463 7660,3470 7681,3480 7703,3491 7725,3504 7749,3518 7772,3533 7795,3550 7818,3568 7841,3586 7864,3605 7886,3625 7908,3645 7929,3665 7950,3685 7971,3704 7991,3724 8011,3744 8031,3764 8051,3784 8071,3804 8091,3824 8112,3844 8133,3864 8154,3884 8176,3904 8198,3924 8221,3943 8244,3961 8267,3979 8290,3995 8313,4011 8337,4025 8359,4037 8381,4049 8402,4058 8423,4066 8444,4072 8464,4076 8483,4078 8503,4079 8523,4078 8543,4075 8563,4071 8584,4064 8606,4054 8629,4041 8655,4027 8681,4010 8709,3990 8739,3968 8770,3943 8802,3917 8834,3890 8866,3863 8894,3838 8920,3816 8941,3797 8957,3782 8967,3773 8973,3766 8976,3764 "
       style="stroke:#000000;stroke-width:8; stroke-linejoin:bevel; stroke-linecap:butt; fill:#b2f1f1; "
       id="polyline20" />
    <!-- Line -->
    <polyline
       points="5669,3779 9921,3779 "
       style="stroke:#000000;stroke-width:8; stroke-linejoin:miter; stroke-linecap:butt; "
       id="polyline22" />
    <!-- Line -->
    <polyline
       points="6141,944 6141,4251 "
       style="stroke:#000000;stroke-width:8; stroke-linejoin:miter; stroke-linecap:butt; "
       id="polyline24" />
    <!-- Text -->
    <text
       xml:space="preserve"
       x="7523"
       y="2371"
       fill="#000000"
       font-family="Times"
       font-style="italic"
       font-weight="bold"
       font-size="252"
       text-anchor="start"
       id="text26">n=2</text>
    <!-- Text -->
    <text
       xml:space="preserve"
       x="2362"
       y="2354"
       fill="#000000"
       font-family="Times"
       font-style="italic"
       font-weight="bold"
       font-size="252"
       text-anchor="start"
       id="text28">n=3</text>
    <!-- Text -->
    <text
       xml:space="preserve"
       x="4417"
       y="4173"
       fill="#000000"
       font-family="Times"
       font-style="italic"
       font-weight="bold"
       font-size="189"
       text-anchor="start"
       id="text30">3</text>
    <!-- Text -->
    <text
       xml:space="preserve"
       x="9090"
       y="4191"
       fill="#000000"
       font-family="Times"
       font-style="italic"
       font-weight="bold"
       font-size="189"
       text-anchor="start"
       id="text32">2</text>
    <!-- Text -->
    <text
       xml:space="preserve"
       x="3403"
       y="4155"
       fill="#000000"
       font-family="Times"
       font-style="italic"
       font-weight="bold"
       font-size="189"
       text-anchor="start"
       id="text34">2</text>
    <!-- Text -->
    <text
       xml:space="preserve"
       x="8162"
       y="4190"
       fill="#000000"
       font-family="Times"
       font-style="italic"
       font-weight="bold"
       font-size="189"
       text-anchor="start"
       id="text36">1</text>
    <!-- Text -->
    <text
       xml:space="preserve"
       x="2511"
       y="4173"
       fill="#000000"
       font-family="Times"
       font-style="italic"
       font-weight="bold"
       font-size="189"
       text-anchor="start"
       id="text38">1</text>
    <!-- Text -->
    <text
       xml:space="preserve"
       x="7112"
       y="4173"
       fill="#000000"
       font-family="Times"
       font-style="italic"
       font-weight="bold"
       font-size="189"
       text-anchor="start"
       id="text40">0</text>
    <!-- Text -->
    <text
       xml:space="preserve"
       x="1460"
       y="4242"
       fill="#000000"
       font-family="Times"
       font-style="italic"
       font-weight="bold"
       font-size="189"
       text-anchor="start"
       id="text42">0</text>
    <!-- Text -->
    <text
       xml:space="preserve"
       x="8923"
       y="4024"
       fill="#000000"
       font-family="Times"
       font-style="italic"
       font-weight="bold"
       font-size="252"
       text-anchor="start"
       id="text44">x</text>
    <!-- Text -->
    <text
       xml:space="preserve"
       x="7995"
       y="4041"
       fill="#000000"
       font-family="Times"
       font-style="italic"
       font-weight="bold"
       font-size="252"
       text-anchor="start"
       id="text46">x</text>
    <!-- Text -->
    <text
       xml:space="preserve"
       x="6945"
       y="4006"
       fill="#000000"
       font-family="Times"
       font-style="italic"
       font-weight="bold"
       font-size="252"
       text-anchor="start"
       id="text48">x</text>
    <!-- Text -->
    <text
       xml:space="preserve"
       x="4234"
       y="4058"
       fill="#000000"
       font-family="Times"
       font-style="italic"
       font-weight="bold"
       font-size="252"
       text-anchor="start"
       id="text50">x</text>
    <!-- Text -->
    <text
       xml:space="preserve"
       x="3218"
       y="4041"
       fill="#000000"
       font-family="Times"
       font-style="italic"
       font-weight="bold"
       font-size="252"
       text-anchor="start"
       id="text52">x</text>
    <!-- Text -->
    <text
       xml:space="preserve"
       x="1259"
       y="4076"
       fill="#000000"
       font-family="Times"
       font-style="italic"
       font-weight="bold"
       font-size="252"
       text-anchor="start"
       id="text54">x</text>
    <!-- Text -->
    <text
       xml:space="preserve"
       x="2344"
       y="4007"
       fill="#000000"
       font-family="Times"
       font-style="italic"
       font-weight="bold"
       font-size="252"
       text-anchor="start"
       id="text56">x</text>
  </g>
</svg>
