<?xml version="1.0" encoding="UTF-8" standalone="no"?>
<!-- Creator: fig2dev Version 3.2 Patchlevel 5e -->

<!-- CreationDate: Tue Dec 17 07:30:46 2019 -->

<!-- Magnification: 1.050 -->

<svg
   xmlns:dc="http://purl.org/dc/elements/1.1/"
   xmlns:cc="http://creativecommons.org/ns#"
   xmlns:rdf="http://www.w3.org/1999/02/22-rdf-syntax-ns#"
   xmlns:svg="http://www.w3.org/2000/svg"
   xmlns="http://www.w3.org/2000/svg"
   xmlns:sodipodi="http://sodipodi.sourceforge.net/DTD/sodipodi-0.dtd"
   xmlns:inkscape="http://www.inkscape.org/namespaces/inkscape"
   width="4.3in"
   height="2.8in"
   viewBox="932 932 5158 3332"
   id="svg3447"
   version="1.1"
   inkscape:version="0.91 r13725"
   sodipodi:docname="fixed.svg">
  <metadata
     id="metadata3497">
    <rdf:RDF>
      <cc:Work
         rdf:about="">
        <dc:format>image/svg+xml</dc:format>
        <dc:type
           rdf:resource="http://purl.org/dc/dcmitype/StillImage" />
        <dc:title></dc:title>
      </cc:Work>
    </rdf:RDF>
  </metadata>
  <defs
     id="defs3495" />
  <sodipodi:namedview
     pagecolor="#ffffff"
     bordercolor="#666666"
     borderopacity="1"
     objecttolerance="10"
     gridtolerance="10"
     guidetolerance="10"
     inkscape:pageopacity="0"
     inkscape:pageshadow="2"
     inkscape:window-width="640"
     inkscape:window-height="480"
     id="namedview3493"
     showgrid="false"
     inkscape:zoom="0.77002581"
     inkscape:cx="193.50001"
     inkscape:cy="126"
     inkscape:window-x="43"
     inkscape:window-y="24"
     inkscape:window-maximized="0"
     inkscape:current-layer="svg3447" />
  <g
     style="stroke-width:.025in; fill:none"
     id="g3449">
    <!-- Ellipse -->
    <ellipse
       transform="translate(3796,1724) rotate(-0.00000000)"
       rx="34"
       ry="34"
       style="fill:#000000;stroke:#000000;stroke-width:63;"
       id="ellipse3451" />
    <!-- Ellipse -->
    <ellipse
       transform="translate(2379,2530) rotate(-0.00000000)"
       rx="34"
       ry="34"
       style="fill:#000000;stroke:#000000;stroke-width:63;"
       id="ellipse3453" />
    <!-- Line -->
    <polyline
       points="2992,2197 3008,3772 "
       style="stroke:#000000;stroke-width:8; stroke-linejoin:miter; stroke-linecap:butt; stroke-dasharray:67 67;"
       id="polyline3455" />
    <!-- Line -->
    <polyline
       points="2344,2546 2346,2543 2351,2536 2360,2524 2373,2506 2390,2483 2411,2456 2433,2427 2457,2397 2481,2367 2504,2340 2528,2314 2550,2291 2570,2271 2590,2255 2609,2240 2627,2227 2646,2217 2665,2209 2685,2203 2703,2198 2722,2195 2742,2193 2762,2191 2783,2190 2806,2190 2829,2191 2852,2191 2877,2192 2902,2193 2929,2195 2954,2196 2980,2197 3006,2197 3033,2197 3059,2197 3084,2195 3109,2193 3134,2190 3159,2185 3183,2180 3207,2174 3228,2166 3248,2159 3269,2150 3291,2139 3313,2127 3336,2113 3360,2097 3386,2080 3414,2060 3442,2039 3472,2015 3505,1990 3538,1964 3572,1935 3606,1907 3639,1878 3672,1850 3701,1824 3728,1802 3750,1782 3767,1766 3781,1755 3790,1748 3794,1743 3796,1741 "
       style="stroke:#000000;stroke-width:32; stroke-linejoin:bevel; stroke-linecap:butt; "
       id="polyline3457" />
    <!-- Line -->
    <polyline
       points="3779,2834 3779,3779 "
       style="stroke:#000000;stroke-width:8; stroke-linejoin:miter; stroke-linecap:butt; stroke-dasharray:67 67;"
       id="polyline3459" />
    <!-- Line -->
    <polyline
       points="2362,2834 2362,3779 "
       style="stroke:#000000;stroke-width:8; stroke-linejoin:miter; stroke-linecap:butt; stroke-dasharray:67 67;"
       id="polyline3461" />
    <!-- Line -->
    <polyline
       points="2362,1417 1417,1417 "
       style="stroke:#000000;stroke-width:8; stroke-linejoin:miter; stroke-linecap:butt; stroke-dasharray:67 67;"
       id="polyline3463" />
    <!-- Line -->
    <polyline
       points="2362,2834 1417,2834 "
       style="stroke:#000000;stroke-width:8; stroke-linejoin:miter; stroke-linecap:butt; stroke-dasharray:67 67;"
       id="polyline3465" />
    <!-- Line -->
    <polyline
       points="2362,2834 3779,1417 "
       style="stroke:#000000;stroke-width:8; stroke-linejoin:miter; stroke-linecap:butt; "
       id="polyline3467" />
    <!-- Line: box -->
    <rect
       x="2362"
       y="1417"
       width="1417"
       height="1417"
       rx="0"
       style="stroke:#000000;stroke-width:8; stroke-linejoin:miter; stroke-linecap:butt; stroke-dasharray:67 67;"
       id="rect3469" />
    <!-- Line -->
    <polyline
       points="944,3779 4251,3779 "
       style="stroke:#00ff00;stroke-width:8; stroke-linejoin:miter; stroke-linecap:butt; "
       id="polyline3471" />
    <!-- Line -->
    <polyline
       points="1417,944 1417,4251 "
       style="stroke:#00ff00;stroke-width:8; stroke-linejoin:miter; stroke-linecap:butt; "
       id="polyline3473" />
    <!-- Text -->
    <text
       xml:space="preserve"
       x="4478"
       y="2617"
       fill="#000000"
       font-family="Times"
       font-style="normal"
       font-weight="normal"
       font-size="189"
       text-anchor="start"
       id="text3475">is a fixed point.</text>
    <!-- Text -->
    <text
       xml:space="preserve"
       x="4199"
       y="2651"
       fill="#000000"
       font-family="Times"
       font-style="italic"
       font-weight="bold"
       font-size="189"
       text-anchor="start"
       id="text3477">c</text>
    <!-- Text -->
    <text
       xml:space="preserve"
       x="2956"
       y="4121"
       fill="#000000"
       font-family="Times"
       font-style="italic"
       font-weight="bold"
       font-size="189"
       text-anchor="start"
       id="text3479">c</text>
    <!-- Text -->
    <text
       xml:space="preserve"
       x="3897"
       y="1771"
       fill="#000000"
       font-family="Times"
       font-style="italic"
       font-weight="bold"
       font-size="189"
       text-anchor="start"
       id="text3481">B</text>
    <!-- Text -->
    <text
       xml:space="preserve"
       x="2125"
       y="2598"
       fill="#000000"
       font-family="Times"
       font-style="italic"
       font-weight="bold"
       font-size="189"
       text-anchor="start"
       id="text3483">A</text>
    <!-- Text -->
    <text
       xml:space="preserve"
       x="1062"
       y="1534"
       fill="#000000"
       font-family="Times"
       font-style="italic"
       font-weight="bold"
       font-size="189"
       text-anchor="start"
       id="text3485">b</text>
    <!-- Text -->
    <text
       xml:space="preserve"
       x="1062"
       y="2952"
       fill="#000000"
       font-family="Times"
       font-style="italic"
       font-weight="bold"
       font-size="189"
       text-anchor="start"
       id="text3487">a</text>
    <!-- Text -->
    <text
       xml:space="preserve"
       x="3779"
       y="4133"
       fill="#000000"
       font-family="Times"
       font-style="italic"
       font-weight="bold"
       font-size="189"
       text-anchor="start"
       id="text3489">b</text>
    <!-- Text -->
    <text
       xml:space="preserve"
       x="2362"
       y="4133"
       fill="#000000"
       font-family="Times"
       font-style="italic"
       font-weight="bold"
       font-size="189"
       text-anchor="start"
       id="text3491">a</text>
  </g>
</svg>
