<?xml version="1.0" encoding="UTF-8" standalone="no"?>
<!-- Creator: fig2dev Version 3.2 Patchlevel 5e -->

<!-- CreationDate: Tue Dec 17 07:08:01 2019 -->

<!-- Magnification: 1.050 -->

<svg
   xmlns:dc="http://purl.org/dc/elements/1.1/"
   xmlns:cc="http://creativecommons.org/ns#"
   xmlns:rdf="http://www.w3.org/1999/02/22-rdf-syntax-ns#"
   xmlns:svg="http://www.w3.org/2000/svg"
   xmlns="http://www.w3.org/2000/svg"
   xmlns:sodipodi="http://sodipodi.sourceforge.net/DTD/sodipodi-0.dtd"
   xmlns:inkscape="http://www.inkscape.org/namespaces/inkscape"
   width="4.2in"
   height="2.8in"
   viewBox="1877 932 5078 3332"
   id="svg2"
   version="1.1"
   inkscape:version="0.91 r13725"
   sodipodi:docname="muller.svg">
  <metadata
     id="metadata62">
    <rdf:RDF>
      <cc:Work
         rdf:about="">
        <dc:format>image/svg+xml</dc:format>
        <dc:type
           rdf:resource="http://purl.org/dc/dcmitype/StillImage" />
        <dc:title></dc:title>
      </cc:Work>
    </rdf:RDF>
  </metadata>
  <defs
     id="defs60" />
  <sodipodi:namedview
     pagecolor="#ffffff"
     bordercolor="#666666"
     borderopacity="1"
     objecttolerance="10"
     gridtolerance="10"
     guidetolerance="10"
     inkscape:pageopacity="0"
     inkscape:pageshadow="2"
     inkscape:window-width="640"
     inkscape:window-height="480"
     id="namedview58"
     showgrid="false"
     inkscape:zoom="0.78835982"
     inkscape:cx="188.99999"
     inkscape:cy="126"
     inkscape:window-x="53"
     inkscape:window-y="34"
     inkscape:window-maximized="0"
     inkscape:current-layer="svg2" />
  <g
     style="stroke-width:.025in; fill:none"
     id="g4">
    <!-- Line -->
    <polyline
       points="5669,3211 5286,3592 "
       style="stroke:#000000;stroke-width:8; stroke-linejoin:miter; stroke-linecap:butt; "
       id="polyline6" />
    <!-- Arrowhead on XXXpoint 5669 3211 - 5097 3781-->
    <polygon
       points="5232 3539 5107 3771 5338 3646 5232 3539  "
       style="stroke:#000000;stroke-width:8;stroke-miterlimit:8; fill:#000000;"
       id="polygon8" />
    <!-- Line -->
    <polyline
       points="5546,2896 5101,3142 "
       style="stroke:#000000;stroke-width:8; stroke-linejoin:miter; stroke-linecap:butt; "
       id="polyline10" />
    <!-- Arrowhead on XXXpoint 5546 2896 - 4867 3271-->
    <polygon
       points="5063 3076 4879 3264 5135 3208 5063 3076  "
       style="stroke:#000000;stroke-width:8;stroke-miterlimit:8; fill:#000000;"
       id="polygon12" />
    <!-- Line -->
    <polyline
       points="4898,1618 4581,1891 "
       style="stroke:#000000;stroke-width:8; stroke-linejoin:miter; stroke-linecap:butt; "
       id="polyline14" />
    <!-- Arrowhead on XXXpoint 4898 1618 - 4379 2066-->
    <polygon
       points="4530 1834 4389 2056 4628 1949 4530 1834  "
       style="stroke:#000000;stroke-width:8;stroke-miterlimit:8; fill:#000000;"
       id="polygon16" />
    <!-- Line -->
    <polyline
       points="4444,2319 4461,3771 "
       style="stroke:#000000;stroke-width:8; stroke-linejoin:miter; stroke-linecap:butt; stroke-dasharray:67 67;"
       id="polyline18" />
    <!-- Line -->
    <polyline
       points="4251,2056 4251,3771 "
       style="stroke:#000000;stroke-width:8; stroke-linejoin:miter; stroke-linecap:butt; stroke-dasharray:67 67;"
       id="polyline20" />
    <!-- Line -->
    <polyline
       points="3307,3188 3307,3779 "
       style="stroke:#000000;stroke-width:8; stroke-linejoin:miter; stroke-linecap:butt; stroke-dasharray:67 67;"
       id="polyline22" />
    <!-- Line -->
    <polyline
       points="2834,3424 2836,3423 2841,3421 2850,3418 2864,3412 2883,3403 2908,3393 2938,3379 2973,3363 3013,3346 3055,3327 3099,3306 3145,3285 3190,3262 3236,3239 3280,3216 3322,3194 3363,3171 3402,3149 3439,3127 3475,3105 3507,3083 3538,3061 3567,3039 3595,3017 3622,2994 3648,2970 3672,2945 3696,2919 3720,2893 3743,2866 3766,2837 3790,2807 3812,2776 3835,2744 3857,2711 3880,2677 3902,2642 3925,2607 3947,2571 3969,2534 3991,2498 4013,2461 4034,2425 4055,2389 4075,2353 4095,2320 4114,2286 4133,2255 4151,2224 4169,2196 4184,2169 4200,2143 4215,2120 4229,2099 4243,2080 4256,2064 4268,2050 4280,2037 4290,2027 4302,2018 4312,2013 4323,2009 4333,2008 4343,2010 4352,2014 4362,2020 4370,2030 4380,2041 4387,2056 4395,2073 4403,2092 4410,2113 4417,2137 4425,2163 4431,2191 4436,2220 4443,2250 4448,2283 4453,2317 4458,2351 4462,2387 4468,2424 4472,2461 4476,2499 4479,2538 4483,2577 4488,2617 4491,2647 4493,2678 4496,2709 4499,2742 4502,2775 4504,2810 4508,2847 4511,2885 4514,2923 4518,2965 4521,3008 4524,3055 4529,3102 4533,3152 4536,3205 4540,3259 4545,3316 4550,3376 4554,3436 4559,3498 4563,3561 4567,3623 4573,3685 4577,3745 4581,3804 4585,3860 4590,3911 4593,3958 4596,4000 4598,4035 4600,4065 4602,4088 4603,4106 4604,4118 4605,4127 4605,4131 4605,4133 "
       style="stroke:#000000;stroke-width:32; stroke-linejoin:bevel; stroke-linecap:butt; "
       id="polyline24" />
    <!-- Line -->
    <polyline
       points="2834,4251 2835,4249 2837,4245 2840,4238 2846,4225 2854,4207 2865,4184 2879,4154 2896,4117 2916,4073 2940,4022 2966,3965 2997,3901 3029,3832 3064,3758 3102,3679 3141,3597 3182,3513 3224,3427 3267,3340 3310,3254 3353,3168 3396,3083 3438,3000 3480,2919 3522,2843 3562,2768 3601,2697 3638,2629 3675,2565 3711,2506 3745,2450 3779,2397 3811,2349 3842,2305 3871,2264 3901,2227 3928,2195 3955,2165 3982,2139 4007,2117 4032,2097 4056,2081 4080,2069 4104,2059 4128,2052 4150,2048 4173,2047 4195,2048 4218,2052 4240,2059 4262,2069 4284,2081 4306,2097 4328,2117 4350,2139 4373,2165 4396,2195 4419,2227 4443,2264 4467,2305 4492,2349 4517,2397 4542,2450 4569,2506 4596,2565 4624,2629 4653,2697 4681,2768 4710,2843 4741,2919 4771,3000 4802,3083 4833,3168 4864,3254 4894,3340 4924,3427 4954,3513 4982,3597 5011,3679 5037,3758 5061,3832 5084,3901 5105,3965 5123,4022 5140,4073 5153,4117 5166,4154 5175,4184 5183,4207 5188,4225 5192,4238 5194,4245 5195,4249 5196,4251 "
       style="stroke:#000000;stroke-width:8; stroke-linejoin:bevel; stroke-linecap:butt; "
       id="polyline26" />
    <!-- Line -->
    <polyline
       points="1889,3779 5669,3779 "
       style="stroke:#00ff00;stroke-width:8; stroke-linejoin:miter; stroke-linecap:butt; "
       id="polyline28" />
    <!-- Line -->
    <polyline
       points="2362,944 2362,4251 "
       style="stroke:#00ff00;stroke-width:8; stroke-linejoin:miter; stroke-linecap:butt; "
       id="polyline30" />
    <!-- Text -->
    <text
       xml:space="preserve"
       x="6104"
       y="3595"
       fill="#000000"
       font-family="Times"
       font-style="italic"
       font-weight="bold"
       font-size="189"
       text-anchor="start"
       id="text32">x</text>
    <!-- Text -->
    <text
       xml:space="preserve"
       x="6227"
       y="3700"
       fill="#000000"
       font-family="Times"
       font-style="italic"
       font-weight="bold"
       font-size="152"
       text-anchor="start"
       id="text34">2</text>
    <!-- Text -->
    <text
       xml:space="preserve"
       x="5738"
       y="3630"
       fill="#000000"
       font-family="Times"
       font-style="normal"
       font-weight="normal"
       font-size="189"
       text-anchor="start"
       id="text36">to </text>
    <!-- Text -->
    <text
       xml:space="preserve"
       x="5738"
       y="3228"
       fill="#000000"
       font-family="Times"
       font-style="normal"
       font-weight="normal"
       font-size="189"
       text-anchor="start"
       id="text38">Root closer</text>
    <!-- Text -->
    <text
       xml:space="preserve"
       x="5266"
       y="2790"
       fill="#000000"
       font-family="Times"
       font-style="normal"
       font-weight="normal"
       font-size="189"
       text-anchor="start"
       id="text40">parabola</text>
    <!-- Text -->
    <text
       xml:space="preserve"
       x="5266"
       y="2388"
       fill="#000000"
       font-family="Times"
       font-style="normal"
       font-weight="normal"
       font-size="189"
       text-anchor="start"
       id="text42">Interpolating </text>
    <!-- Text -->
    <text
       xml:space="preserve"
       x="4444"
       y="4138"
       fill="#000000"
       font-family="Times"
       font-style="italic"
       font-weight="bold"
       font-size="152"
       text-anchor="start"
       id="text44">2</text>
    <!-- Text -->
    <text
       xml:space="preserve"
       x="4321"
       y="4033"
       fill="#000000"
       font-family="Times"
       font-style="italic"
       font-weight="bold"
       font-size="189"
       text-anchor="start"
       id="text46">x</text>
    <!-- Text -->
    <text
       xml:space="preserve"
       x="4111"
       y="4050"
       fill="#000000"
       font-family="Times"
       font-style="italic"
       font-weight="bold"
       font-size="152"
       text-anchor="start"
       id="text48">1</text>
    <!-- Text -->
    <text
       xml:space="preserve"
       x="3953"
       y="3997"
       fill="#000000"
       font-family="Times"
       font-style="italic"
       font-weight="bold"
       font-size="189"
       text-anchor="start"
       id="text50">x</text>
    <!-- Text -->
    <text
       xml:space="preserve"
       x="3341"
       y="4120"
       fill="#000000"
       font-family="Times"
       font-style="italic"
       font-weight="bold"
       font-size="152"
       text-anchor="start"
       id="text52">0</text>
    <!-- Text -->
    <text
       xml:space="preserve"
       x="3184"
       y="4050"
       fill="#000000"
       font-family="Times"
       font-style="italic"
       font-weight="bold"
       font-size="189"
       text-anchor="start"
       id="text54">x</text>
    <!-- Text -->
    <text
       xml:space="preserve"
       x="4829"
       y="1513"
       fill="#000000"
       font-family="Times"
       font-style="italic"
       font-weight="bold"
       font-size="189"
       text-anchor="start"
       id="text56">f(x)</text>
  </g>
</svg>
