<?xml version="1.0" encoding="UTF-8" standalone="no"?>
<!-- Creator: fig2dev Version 3.2 Patchlevel 5e -->

<!-- CreationDate: Thu Dec 26 11:39:44 2019 -->

<!-- Magnification: 1.000 -->

<svg
   xmlns:dc="http://purl.org/dc/elements/1.1/"
   xmlns:cc="http://creativecommons.org/ns#"
   xmlns:rdf="http://www.w3.org/1999/02/22-rdf-syntax-ns#"
   xmlns:svg="http://www.w3.org/2000/svg"
   xmlns="http://www.w3.org/2000/svg"
   xmlns:sodipodi="http://sodipodi.sourceforge.net/DTD/sodipodi-0.dtd"
   xmlns:inkscape="http://www.inkscape.org/namespaces/inkscape"
   width="3.7in"
   height="4.6in"
   viewBox="2238 1107 4468 5500"
   id="svg2"
   version="1.1"
   inkscape:version="0.91 r13725"
   sodipodi:docname="qrflow1.svg">
  <metadata
     id="metadata80">
    <rdf:RDF>
      <cc:Work
         rdf:about="">
        <dc:format>image/svg+xml</dc:format>
        <dc:type
           rdf:resource="http://purl.org/dc/dcmitype/StillImage" />
        <dc:title></dc:title>
      </cc:Work>
    </rdf:RDF>
  </metadata>
  <defs
     id="defs78" />
  <sodipodi:namedview
     pagecolor="#ffffff"
     bordercolor="#666666"
     borderopacity="1"
     objecttolerance="10"
     gridtolerance="10"
     guidetolerance="10"
     inkscape:pageopacity="0"
     inkscape:pageshadow="2"
     inkscape:window-width="640"
     inkscape:window-height="480"
     id="namedview76"
     showgrid="false"
     inkscape:zoom="0.57004832"
     inkscape:cx="166.5"
     inkscape:cy="207"
     inkscape:window-x="53"
     inkscape:window-y="34"
     inkscape:window-maximized="0"
     inkscape:current-layer="svg2" />
  <g
     style="stroke-width:.025in; fill:none"
     id="g4">
    <!-- Arc -->
    <path
       style="stroke:#000000;stroke-width:7;stroke-linecap:butt;"
       d="M 2850,4200 A 395 395  0  0  1  3450  3750 "
       id="path6" />
    <!-- Arc -->
    <path
       style="stroke:#000000;stroke-width:7;stroke-linecap:butt;"
       d="M 3350,3698 A 336 336  0  0  1  3933  3632 "
       id="path8" />
    <!-- Arc -->
    <path
       style="stroke:#000000;stroke-width:7;stroke-linecap:butt;"
       d="M 3833,3765 A 952 952  0  0  1  5016  3665 "
       id="path10" />
    <!-- Arc -->
    <path
       style="stroke:#000000;stroke-width:7;stroke-linecap:butt;"
       d="M 4883,3598 A 640 640  0  0  1  5833  3765 "
       id="path12" />
    <!-- Arc -->
    <path
       style="stroke:#000000;stroke-width:7;stroke-linecap:butt;"
       d="M 5750,3682 A 518 518  0  0  1  6483  4132 "
       id="path14" />
    <!-- Arc -->
    <path
       style="stroke:#000000;stroke-width:7;stroke-linecap:butt;"
       d="M 6383,4048 A 549 549  0  0  1  6416  5015 "
       id="path16" />
    <!-- Arc -->
    <path
       style="stroke:#000000;stroke-width:7;stroke-linecap:butt;"
       d="M 6516,4915 A 382 382  0  1  1  6066  5532 "
       id="path18" />
    <!-- Arc -->
    <path
       style="stroke:#000000;stroke-width:7;stroke-linecap:butt;"
       d="M 6266,5398 A 1405 1405  0  0  1  4550  5565 "
       id="path20" />
    <!-- Arc -->
    <path
       style="stroke:#000000;stroke-width:7;stroke-linecap:butt;"
       d="M 4650,5415 A 318 318  0  0  1  4033  5398 "
       id="path22" />
    <!-- Arc -->
    <path
       style="stroke:#000000;stroke-width:7;stroke-linecap:butt;"
       d="M 4083,5532 A 442 442  0  0  1  3333  5098 "
       id="path24" />
    <!-- Arc -->
    <path
       style="stroke:#000000;stroke-width:7;stroke-linecap:butt;"
       d="M 3516,5248 A 710 710  0  0  1  3000  4082 "
       id="path26" />
    <!-- Arc -->
    <path
       style="stroke:#000000;stroke-width:7;stroke-linecap:butt;"
       d="M 3550,1576 A 363 363  0  0  1  4233  1376 "
       id="path28" />
    <!-- Arc -->
    <path
       style="stroke:#000000;stroke-width:7;stroke-linecap:butt;"
       d="M 4116,1259 A 793 793  0  0  1  5016  1309 "
       id="path30" />
    <!-- Arc -->
    <path
       style="stroke:#000000;stroke-width:7;stroke-linecap:butt;"
       d="M 4866,1393 A 802 802  0  0  1  5750  1359 "
       id="path32" />
    <!-- Arc -->
    <path
       style="stroke:#000000;stroke-width:7;stroke-linecap:butt;"
       d="M 5633,1293 A 239 239  0  1  1  6050  1509 "
       id="path34" />
    <!-- Arc -->
    <path
       style="stroke:#000000;stroke-width:7;stroke-linecap:butt;"
       d="M 5966,1409 A 341 341  0  0  1  5750  2043 "
       id="path36" />
    <!-- Arc -->
    <path
       style="stroke:#000000;stroke-width:7;stroke-linecap:butt;"
       d="M 5833,1943 A 390 390  0  0  1  5250  2009 "
       id="path38" />
    <!-- Arc -->
    <path
       style="stroke:#000000;stroke-width:7;stroke-linecap:butt;"
       d="M 5333,2076 A 1445 1445  0  0  1  4350  2026 "
       id="path40" />
    <!-- Arc -->
    <path
       style="stroke:#000000;stroke-width:7;stroke-linecap:butt;"
       d="M 4500,2026 A 498 498  0  0  1  3733  1959 "
       id="path42" />
    <!-- Arc -->
    <path
       style="stroke:#000000;stroke-width:7;stroke-linecap:butt;"
       d="M 3883,2109 A 363 363  0  1  1  3550  1476 "
       id="path44" />
    <!-- Ellipse -->
    <ellipse
       transform="translate(4800,6450) rotate(-0.00000000)"
       rx="150"
       ry="150"
       style="stroke:#000000;stroke-width:7;"
       id="ellipse46" />
    <!-- Line: box -->
    <rect
       x="3300"
       y="2700"
       width="2850"
       height="450"
       rx="180"
       style="stroke:#000000;stroke-width:7; stroke-linejoin:miter; stroke-linecap:butt; "
       id="rect48" />
    <!-- Line -->
    <polyline
       points="4650,6450 2250,6450 2250,2850 3060,2850 "
       style="stroke:#000000;stroke-width:7; stroke-linejoin:miter; stroke-linecap:butt; stroke-dasharray:64 64;"
       id="polyline50" />
    <!-- Arrowhead on XXXpoint 2250 2850 - 3315 2850-->
    <polygon
       points="2998 2922 3298 2850 2998 2778 3058 2850 2998 2922  "
       style="stroke:#000000;stroke-width:7;stroke-miterlimit:8; fill:#000000;"
       id="polygon52" />
    <!-- Line -->
    <polyline
       points="4800,2100 4800,2460 "
       style="stroke:#000000;stroke-width:7; stroke-linejoin:miter; stroke-linecap:butt; "
       id="polyline54" />
    <!-- Arrowhead on XXXpoint 4800 2100 - 4800 2715-->
    <polygon
       points="4728 2398 4800 2698 4872 2398 4800 2458 4728 2398  "
       style="stroke:#000000;stroke-width:7;stroke-miterlimit:8; fill:#000000;"
       id="polygon56" />
    <!-- Line -->
    <polyline
       points="4800,3150 4800,3360 "
       style="stroke:#000000;stroke-width:7; stroke-linejoin:miter; stroke-linecap:butt; "
       id="polyline58" />
    <!-- Arrowhead on XXXpoint 4800 3150 - 4800 3615-->
    <polygon
       points="4728 3298 4800 3598 4872 3298 4800 3358 4728 3298  "
       style="stroke:#000000;stroke-width:7;stroke-miterlimit:8; fill:#000000;"
       id="polygon60" />
    <!-- Line -->
    <polyline
       points="4800,5700 4800,6060 "
       style="stroke:#000000;stroke-width:7; stroke-linejoin:miter; stroke-linecap:butt; "
       id="polyline62" />
    <!-- Arrowhead on XXXpoint 4800 5700 - 4800 6315-->
    <polygon
       points="4728 5998 4800 6298 4872 5998 4800 6058 4728 5998  "
       style="stroke:#000000;stroke-width:7;stroke-miterlimit:8; fill:#000000;"
       id="polygon64" />
    <!-- Text -->
    <text
       xml:space="preserve"
       x="4800"
       y="3000"
       fill="#000000"
       font-family="Times"
       font-style="normal"
       font-weight="normal"
       font-size="240"
       text-anchor="middle"
       id="text66">for i=0,...,p-1</text>
    <!-- Text -->
    <text
       xml:space="preserve"
       x="4800"
       y="1800"
       fill="#000000"
       font-family="Times"
       font-style="normal"
       font-weight="normal"
       font-size="240"
       text-anchor="middle"
       id="text68">Read n, p, A</text>
    <!-- Text -->
    <text
       xml:space="preserve"
       x="4800"
       y="4200"
       fill="#000000"
       font-family="Times"
       font-style="normal"
       font-weight="normal"
       font-size="240"
       text-anchor="middle"
       id="text70">&quot;Shave&quot; the lower </text>
    <!-- Text -->
    <text
       xml:space="preserve"
       x="4800"
       y="5100"
       fill="#000000"
       font-family="Times"
       font-style="normal"
       font-weight="normal"
       font-size="240"
       text-anchor="middle"
       id="text72">column of A.</text>
    <!-- Text -->
    <text
       xml:space="preserve"
       x="4800"
       y="4650"
       fill="#000000"
       font-family="Times"
       font-style="normal"
       font-weight="normal"
       font-size="240"
       text-anchor="middle"
       id="text74">part of the i-th</text>
  </g>
</svg>
