<?xml version="1.0" encoding="UTF-8" standalone="no"?>
<!-- Creator: fig2dev Version 3.2 Patchlevel 5e -->

<!-- CreationDate: Thu Dec 26 11:43:27 2019 -->

<!-- Magnification: 1.000 -->

<svg
   xmlns:dc="http://purl.org/dc/elements/1.1/"
   xmlns:cc="http://creativecommons.org/ns#"
   xmlns:rdf="http://www.w3.org/1999/02/22-rdf-syntax-ns#"
   xmlns:svg="http://www.w3.org/2000/svg"
   xmlns="http://www.w3.org/2000/svg"
   xmlns:sodipodi="http://sodipodi.sourceforge.net/DTD/sodipodi-0.dtd"
   xmlns:inkscape="http://www.inkscape.org/namespaces/inkscape"
   width="3.8in"
   height="3.8in"
   viewBox="2088 993 4524 4564"
   id="svg2"
   version="1.1"
   inkscape:version="0.91 r13725"
   sodipodi:docname="qrflow3.svg">
  <metadata
     id="metadata82">
    <rdf:RDF>
      <cc:Work
         rdf:about="">
        <dc:format>image/svg+xml</dc:format>
        <dc:type
           rdf:resource="http://purl.org/dc/dcmitype/StillImage" />
        <dc:title></dc:title>
      </cc:Work>
    </rdf:RDF>
  </metadata>
  <defs
     id="defs80" />
  <sodipodi:namedview
     pagecolor="#ffffff"
     bordercolor="#666666"
     borderopacity="1"
     objecttolerance="10"
     gridtolerance="10"
     guidetolerance="10"
     inkscape:pageopacity="0"
     inkscape:pageshadow="2"
     inkscape:window-width="640"
     inkscape:window-height="480"
     id="namedview78"
     showgrid="false"
     inkscape:zoom="0.69005849"
     inkscape:cx="171"
     inkscape:cy="171"
     inkscape:window-x="53"
     inkscape:window-y="34"
     inkscape:window-maximized="0"
     inkscape:current-layer="svg2" />
  <g
     style="stroke-width:.025in; fill:none"
     id="g4">
    <!-- Arc -->
    <path
       style="stroke:#000000;stroke-width:7;stroke-linecap:butt;"
       d="M 3266,3876 A 235 235  0  0  1  3666  3626 "
       id="path6" />
    <!-- Arc -->
    <path
       style="stroke:#000000;stroke-width:7;stroke-linecap:butt;"
       d="M 3616,3676 A 429 429  0  0  1  4183  3626 "
       id="path8" />
    <!-- Arc -->
    <path
       style="stroke:#000000;stroke-width:7;stroke-linecap:butt;"
       d="M 4150,3709 A 419 419  0  0  1  4850  3726 "
       id="path10" />
    <!-- Arc -->
    <path
       style="stroke:#000000;stroke-width:7;stroke-linecap:butt;"
       d="M 4783,3643 A 282 282  0  0  1  5283  3643 "
       id="path12" />
    <!-- Arc -->
    <path
       style="stroke:#000000;stroke-width:7;stroke-linecap:butt;"
       d="M 5216,3726 A 372 372  0  0  1  5750  3659 "
       id="path14" />
    <!-- Arc -->
    <path
       style="stroke:#000000;stroke-width:7;stroke-linecap:butt;"
       d="M 5733,3726 A 418 418  0  0  1  6500  3926 "
       id="path16" />
    <!-- Arc -->
    <path
       style="stroke:#000000;stroke-width:7;stroke-linecap:butt;"
       d="M 6416,3826 A 309 309  0  0  1  6133  4376 "
       id="path18" />
    <!-- Arc -->
    <path
       style="stroke:#000000;stroke-width:7;stroke-linecap:butt;"
       d="M 6266,4409 A 387 387  0  0  1  5550  4359 "
       id="path20" />
    <!-- Arc -->
    <path
       style="stroke:#000000;stroke-width:7;stroke-linecap:butt;"
       d="M 5700,4343 A 1121 1121  0  0  1  4933  4309 "
       id="path22" />
    <!-- Arc -->
    <path
       style="stroke:#000000;stroke-width:7;stroke-linecap:butt;"
       d="M 5050,4343 A 567 567  0  0  1  4316  4309 "
       id="path24" />
    <!-- Arc -->
    <path
       style="stroke:#000000;stroke-width:7;stroke-linecap:butt;"
       d="M 4400,4393 A 402 402  0  0  1  3750  4193 "
       id="path26" />
    <!-- Arc -->
    <path
       style="stroke:#000000;stroke-width:7;stroke-linecap:butt;"
       d="M 3800,4309 A 365 365  0  0  1  3250  4076 "
       id="path28" />
    <!-- Arc -->
    <path
       style="stroke:#000000;stroke-width:7;stroke-linecap:butt;"
       d="M 3233,3709 A 281 281  0  0  0  3333  4226 "
       id="path30" />
    <!-- Arc -->
    <path
       style="stroke:#000000;stroke-width:7;stroke-linecap:butt;"
       d="M 4850,1359 A 472 472  0  0  1  5716  1393 "
       id="path32" />
    <!-- Arc -->
    <path
       style="stroke:#000000;stroke-width:7;stroke-linecap:butt;"
       d="M 5666,1309 A 477 477  0  0  1  6416  1826 "
       id="path34" />
    <!-- Arc -->
    <path
       style="stroke:#000000;stroke-width:7;stroke-linecap:butt;"
       d="M 6350,1726 A 278 278  0  0  1  6000  2159 "
       id="path36" />
    <!-- Arc -->
    <path
       style="stroke:#000000;stroke-width:7;stroke-linecap:butt;"
       d="M 6100,2026 A 606 606  0  0  1  5283  2043 "
       id="path38" />
    <!-- Arc -->
    <path
       style="stroke:#000000;stroke-width:7;stroke-linecap:butt;"
       d="M 5400,2176 A 711 711  0  0  1  4566  2109 "
       id="path40" />
    <!-- Arc -->
    <path
       style="stroke:#000000;stroke-width:7;stroke-linecap:butt;"
       d="M 4666,2059 A 503 503  0  0  1  3933  2043 "
       id="path42" />
    <!-- Arc -->
    <path
       style="stroke:#000000;stroke-width:7;stroke-linecap:butt;"
       d="M 3983,2076 A 563 563  0  0  1  3183  1876 "
       id="path44" />
    <!-- Arc -->
    <path
       style="stroke:#000000;stroke-width:7;stroke-linecap:butt;"
       d="M 3316,1959 A 321 321  0  0  1  3216  1326 "
       id="path46" />
    <!-- Arc -->
    <path
       style="stroke:#000000;stroke-width:7;stroke-linecap:butt;"
       d="M 3166,1459 A 523 523  0  0  1  4166  1409 "
       id="path48" />
    <!-- Arc -->
    <path
       style="stroke:#000000;stroke-width:7;stroke-linecap:butt;"
       d="M 4033,1226 A 611 611  0  0  1  4966  1209 "
       id="path50" />
    <!-- Ellipse -->
    <ellipse
       transform="translate(4800,5400) rotate(-0.00000000)"
       rx="150"
       ry="150"
       style="stroke:#000000;stroke-width:7;"
       id="ellipse52" />
    <!-- Line: box -->
    <rect
       x="3000"
       y="2550"
       width="3600"
       height="600"
       rx="180"
       style="stroke:#000000;stroke-width:7; stroke-linejoin:miter; stroke-linecap:butt; "
       id="rect54" />
    <!-- Line -->
    <polyline
       points="4800,2250 4800,2310 "
       style="stroke:#000000;stroke-width:7; stroke-linejoin:miter; stroke-linecap:butt; "
       id="polyline56" />
    <!-- Arrowhead on XXXpoint 4800 2250 - 4800 2565-->
    <polygon
       points="4728 2248 4800 2548 4872 2248 4800 2308 4728 2248  "
       style="stroke:#000000;stroke-width:7;stroke-miterlimit:8; fill:#000000;"
       id="polygon58" />
    <!-- Line -->
    <polyline
       points="4800,3150 4800,3360 "
       style="stroke:#000000;stroke-width:7; stroke-linejoin:miter; stroke-linecap:butt; "
       id="polyline60" />
    <!-- Arrowhead on XXXpoint 4800 3150 - 4800 3615-->
    <polygon
       points="4728 3298 4800 3598 4872 3298 4800 3358 4728 3298  "
       style="stroke:#000000;stroke-width:7;stroke-miterlimit:8; fill:#000000;"
       id="polygon62" />
    <!-- Line -->
    <polyline
       points="4800,4500 4800,5010 "
       style="stroke:#000000;stroke-width:7; stroke-linejoin:miter; stroke-linecap:butt; "
       id="polyline64" />
    <!-- Arrowhead on XXXpoint 4800 4500 - 4800 5265-->
    <polygon
       points="4728 4948 4800 5248 4872 4948 4800 5008 4728 4948  "
       style="stroke:#000000;stroke-width:7;stroke-miterlimit:8; fill:#000000;"
       id="polygon66" />
    <!-- Line -->
    <polyline
       points="4650,5400 2100,5400 2100,2850 2760,2850 "
       style="stroke:#000000;stroke-width:7; stroke-linejoin:miter; stroke-linecap:butt; stroke-dasharray:64 64;"
       id="polyline68" />
    <!-- Arrowhead on XXXpoint 2100 2850 - 3015 2850-->
    <polygon
       points="2698 2922 2998 2850 2698 2778 2758 2850 2698 2922  "
       style="stroke:#000000;stroke-width:7;stroke-miterlimit:8; fill:#000000;"
       id="polygon70" />
    <!-- Text -->
    <text
       xml:space="preserve"
       x="4800"
       y="1800"
       fill="#000000"
       font-family="Times"
       font-style="normal"
       font-weight="normal"
       font-size="240"
       text-anchor="middle"
       id="text72">Process column i.</text>
    <!-- Text -->
    <text
       xml:space="preserve"
       x="4800"
       y="4050"
       fill="#000000"
       font-family="Times"
       font-style="normal"
       font-weight="normal"
       font-size="240"
       text-anchor="middle"
       id="text74">Update column j</text>
    <!-- Text -->
    <text
       xml:space="preserve"
       x="4800"
       y="3000"
       fill="#000000"
       font-family="Times"
       font-style="normal"
       font-weight="normal"
       font-size="240"
       text-anchor="middle"
       id="text76">for j=i+1,...,p-1</text>
  </g>
</svg>
